<svg xmlns="http://www.w3.org/2000/svg" viewBox="0 0 256 256" role="img" aria-label="Closed circuit with lit bulb illustration">
  <rect width="256" height="256" rx="48" fill="#F7FBFF"/>
  <circle cx="206" cy="50" r="24" fill="#FFE9A8" opacity="0.75"/>
  <path d="M68 148c0-48 26-82 60-82s60 34 60 82-26 70-60 70-60-22-60-70z" fill="none" stroke="#2F80ED" stroke-width="12"/><rect x="87" y="181" width="82" height="34" rx="10" fill="#7ADCB4" stroke="#243B53" stroke-width="10" stroke-linecap="round" stroke-linejoin="round"/><path d="M105 181v-36h46v36" fill="none" stroke="#243B53" stroke-width="10" stroke-linecap="round" stroke-linejoin="round"/><circle cx="128" cy="101" r="31" fill="#FFE177" stroke="#243B53" stroke-width="10" stroke-linecap="round" stroke-linejoin="round"/><path d="M113 102c8-12 22-12 30 0" fill="none" stroke="#F59E0B" stroke-width="7"/><path d="M52 79h28M66 65v28M176 56l14-14M202 90h24" stroke="#243B53" stroke-width="10" stroke-linecap="round" stroke-linejoin="round"/>
</svg>
